<svg xmlns="http://www.w3.org/2000/svg" width="793.33" height="1122.67" viewBox="0 0 793.33 1122.67"><svg x="46.67" y="105.33" width="700" height="752.85" viewBox="46.67 105.33 700 752.85"><path d="M48 140H745.3V106.7H48Z" fill="#ed1c24"/><path d="M48 173.3H89.6V140H48Z" fill="#9fa1a4"/><path d="M89.6 173.3H154.9V140H89.6Z" fill="#9fa1a4"/><path d="M154.9 173.3H362.2V140H154.9Z" fill="#9fa1a4"/><path d="M362.2 173.3H469.1V140H362.2Z" fill="#9fa1a4"/><path d="M469.1 173.3H561.2V140H469.1Z" fill="#9fa1a4"/><path d="M561.2 173.3H653.3V140H561.2Z" fill="#9fa1a4"/><path d="M653.3 173.3H745.3V140H653.3Z" fill="#9fa1a4"/><path d="M89.6 173.3V140" fill="none" stroke="#ffffff" stroke-width="0.67"/><path d="M154.9 173.3V140" fill="none" stroke="#ffffff" stroke-width="0.67"/><path d="M362.2 173.3V140" fill="none" stroke="#ffffff" stroke-width="0.67"/><path d="M469.1 173.3V140" fill="none" stroke="#ffffff" stroke-width="0.67"/><path d="M561.2 173.3V140" fill="none" stroke="#ffffff" stroke-width="0.67"/><path d="M653.3 173.3V140" fill="none" stroke="#ffffff" stroke-width="0.67"/><path d="M745.3 173.3V140" fill="none" stroke="#ffffff" stroke-width="0.67"/><path d="M48 201.8H89.6" fill="none" stroke="#9fa1a4" stroke-width="0.67"/><path d="M89.6 201.8H154.9" fill="none" stroke="#9fa1a4" stroke-width="0.67"/><path d="M154.9 201.8H362.2" fill="none" stroke="#9fa1a4" stroke-width="0.67"/><path d="M362.2 201.8H469.1" fill="none" stroke="#9fa1a4" stroke-width="0.67"/><path d="M469.1 201.8H561.2" fill="none" stroke="#9fa1a4" stroke-width="0.67"/><path d="M561.2 201.8H653.3" fill="none" stroke="#9fa1a4" stroke-width="0.67"/><path d="M653.3 201.8H745.3" fill="none" stroke="#9fa1a4" stroke-width="0.67"/><path d="M48 230.3H89.6" fill="none" stroke="#9fa1a4" stroke-width="0.67"/><path d="M89.6 230.3H154.9" fill="none" stroke="#9fa1a4" stroke-width="0.67"/><path d="M154.9 230.3H362.2" fill="none" stroke="#9fa1a4" stroke-width="0.67"/><path d="M362.2 230.3H469.1" fill="none" stroke="#9fa1a4" stroke-width="0.67"/><path d="M469.1 230.3H561.2" fill="none" stroke="#9fa1a4" stroke-width="0.67"/><path d="M561.2 230.3H653.3" fill="none" stroke="#9fa1a4" stroke-width="0.67"/><path d="M653.3 230.3H745.3" fill="none" stroke="#9fa1a4" stroke-width="0.67"/><path d="M48 258.8H89.6" fill="none" stroke="#9fa1a4" stroke-width="0.67"/><path d="M89.6 258.8H154.9" fill="none" stroke="#9fa1a4" stroke-width="0.67"/><path d="M154.9 258.8H362.2" fill="none" stroke="#9fa1a4" stroke-width="0.67"/><path d="M362.2 258.8H469.1" fill="none" stroke="#9fa1a4" stroke-width="0.67"/><path d="M469.1 258.8H561.2" fill="none" stroke="#9fa1a4" stroke-width="0.67"/><path d="M561.2 258.8H653.3" fill="none" stroke="#9fa1a4" stroke-width="0.67"/><path d="M653.3 258.8H745.3" fill="none" stroke="#9fa1a4" stroke-width="0.67"/><path d="M48 287.3H89.6" fill="none" stroke="#9fa1a4" stroke-width="0.67"/><path d="M89.6 287.3H154.9" fill="none" stroke="#9fa1a4" stroke-width="0.67"/><path d="M154.9 287.3H362.2" fill="none" stroke="#9fa1a4" stroke-width="0.67"/><path d="M362.2 287.3H469.1" fill="none" stroke="#9fa1a4" stroke-width="0.67"/><path d="M469.1 287.3H561.2" fill="none" stroke="#9fa1a4" stroke-width="0.67"/><path d="M561.2 287.3H653.3" fill="none" stroke="#9fa1a4" stroke-width="0.67"/><path d="M653.3 287.3H745.3" fill="none" stroke="#9fa1a4" stroke-width="0.67"/><path d="M48 315.7H89.6" fill="none" stroke="#9fa1a4" stroke-width="0.67"/><path d="M89.6 315.7H154.9" fill="none" stroke="#9fa1a4" stroke-width="0.67"/><path d="M154.9 315.7H362.2" fill="none" stroke="#9fa1a4" stroke-width="0.67"/><path d="M362.2 315.7H469.1" fill="none" stroke="#9fa1a4" stroke-width="0.67"/><path d="M469.1 315.7H561.2" fill="none" stroke="#9fa1a4" stroke-width="0.67"/><path d="M561.2 315.7H653.3" fill="none" stroke="#9fa1a4" stroke-width="0.67"/><path d="M653.3 315.7H745.3" fill="none" stroke="#9fa1a4" stroke-width="0.67"/><path d="M48 344.2H89.6" fill="none" stroke="#9fa1a4" stroke-width="0.67"/><path d="M89.6 344.2H154.9" fill="none" stroke="#9fa1a4" stroke-width="0.67"/><path d="M154.9 344.2H362.2" fill="none" stroke="#9fa1a4" stroke-width="0.67"/><path d="M362.2 344.2H469.1" fill="none" stroke="#9fa1a4" stroke-width="0.67"/><path d="M469.1 344.2H561.2" fill="none" stroke="#9fa1a4" stroke-width="0.67"/><path d="M561.2 344.2H653.3" fill="none" stroke="#9fa1a4" stroke-width="0.67"/><path d="M653.3 344.2H745.3" fill="none" stroke="#9fa1a4" stroke-width="0.67"/><path d="M48 372.7H89.6" fill="none" stroke="#9fa1a4" stroke-width="0.67"/><path d="M89.6 372.7H154.9" fill="none" stroke="#9fa1a4" stroke-width="0.67"/><path d="M154.9 372.7H362.2" fill="none" stroke="#9fa1a4" stroke-width="0.67"/><path d="M362.2 372.7H469.1" fill="none" stroke="#9fa1a4" stroke-width="0.67"/><path d="M469.1 372.7H561.2" fill="none" stroke="#9fa1a4" stroke-width="0.67"/><path d="M561.2 372.7H653.3" fill="none" stroke="#9fa1a4" stroke-width="0.67"/><path d="M653.3 372.7H745.3" fill="none" stroke="#9fa1a4" stroke-width="0.67"/><path d="M48 401.2H89.6" fill="none" stroke="#9fa1a4" stroke-width="0.67"/><path d="M89.6 401.2H154.9" fill="none" stroke="#9fa1a4" stroke-width="0.67"/><path d="M154.9 401.2H362.2" fill="none" stroke="#9fa1a4" stroke-width="0.67"/><path d="M362.2 401.2H469.1" fill="none" stroke="#9fa1a4" stroke-width="0.67"/><path d="M469.1 401.2H561.2" fill="none" stroke="#9fa1a4" stroke-width="0.67"/><path d="M561.2 401.2H653.3" fill="none" stroke="#9fa1a4" stroke-width="0.67"/><path d="M653.3 401.2H745.3" fill="none" stroke="#9fa1a4" stroke-width="0.67"/><path d="M48 429.7H89.6" fill="none" stroke="#9fa1a4" stroke-width="0.67"/><path d="M89.6 429.7H154.9" fill="none" stroke="#9fa1a4" stroke-width="0.67"/><path d="M154.9 429.7H362.2" fill="none" stroke="#9fa1a4" stroke-width="0.67"/><path d="M362.2 429.7H469.1" fill="none" stroke="#9fa1a4" stroke-width="0.67"/><path d="M469.1 429.7H561.2" fill="none" stroke="#9fa1a4" stroke-width="0.67"/><path d="M561.2 429.7H653.3" fill="none" stroke="#9fa1a4" stroke-width="0.67"/><path d="M653.3 429.7H745.3" fill="none" stroke="#9fa1a4" stroke-width="0.67"/><path d="M48 458.1H89.6" fill="none" stroke="#9fa1a4" stroke-width="0.67"/><path d="M89.6 458.1H154.9" fill="none" stroke="#9fa1a4" stroke-width="0.67"/><path d="M154.9 458.1H362.2" fill="none" stroke="#9fa1a4" stroke-width="0.67"/><path d="M362.2 458.1H469.1" fill="none" stroke="#9fa1a4" stroke-width="0.67"/><path d="M469.1 458.1H561.2" fill="none" stroke="#9fa1a4" stroke-width="0.67"/><path d="M561.2 458.1H653.3" fill="none" stroke="#9fa1a4" stroke-width="0.67"/><path d="M653.3 458.1H745.3" fill="none" stroke="#9fa1a4" stroke-width="0.67"/><path d="M48 486.6H89.6" fill="none" stroke="#9fa1a4" stroke-width="0.67"/><path d="M89.6 486.6H154.9" fill="none" stroke="#9fa1a4" stroke-width="0.67"/><path d="M154.9 486.6H362.2" fill="none" stroke="#9fa1a4" stroke-width="0.67"/><path d="M362.2 486.6H469.1" fill="none" stroke="#9fa1a4" stroke-width="0.67"/><path d="M469.1 486.6H561.2" fill="none" stroke="#9fa1a4" stroke-width="0.67"/><path d="M561.2 486.6H653.3" fill="none" stroke="#9fa1a4" stroke-width="0.67"/><path d="M653.3 486.6H745.3" fill="none" stroke="#9fa1a4" stroke-width="0.67"/><path d="M48 515.1H89.6" fill="none" stroke="#9fa1a4" stroke-width="0.67"/><path d="M89.6 515.1H154.9" fill="none" stroke="#9fa1a4" stroke-width="0.67"/><path d="M154.9 515.1H362.2" fill="none" stroke="#9fa1a4" stroke-width="0.67"/><path d="M362.2 515.1H469.1" fill="none" stroke="#9fa1a4" stroke-width="0.67"/><path d="M469.1 515.1H561.2" fill="none" stroke="#9fa1a4" stroke-width="0.67"/><path d="M561.2 515.1H653.3" fill="none" stroke="#9fa1a4" stroke-width="0.67"/><path d="M653.3 515.1H745.3" fill="none" stroke="#9fa1a4" stroke-width="0.67"/><path d="M48 543.6H89.6" fill="none" stroke="#9fa1a4" stroke-width="0.67"/><path d="M89.6 543.6H154.9" fill="none" stroke="#9fa1a4" stroke-width="0.67"/><path d="M154.9 543.6H362.2" fill="none" stroke="#9fa1a4" stroke-width="0.67"/><path d="M362.2 543.6H469.1" fill="none" stroke="#9fa1a4" stroke-width="0.67"/><path d="M469.1 543.6H561.2" fill="none" stroke="#9fa1a4" stroke-width="0.67"/><path d="M561.2 543.6H653.3" fill="none" stroke="#9fa1a4" stroke-width="0.67"/><path d="M653.3 543.6H745.3" fill="none" stroke="#9fa1a4" stroke-width="0.67"/><path d="M48 572.1H89.6" fill="none" stroke="#9fa1a4" stroke-width="0.67"/><path d="M89.6 572.1H154.9" fill="none" stroke="#9fa1a4" stroke-width="0.67"/><path d="M154.9 572.1H362.2" fill="none" stroke="#9fa1a4" stroke-width="0.67"/><path d="M362.2 572.1H469.1" fill="none" stroke="#9fa1a4" stroke-width="0.67"/><path d="M469.1 572.1H561.2" fill="none" stroke="#9fa1a4" stroke-width="0.67"/><path d="M561.2 572.1H653.3" fill="none" stroke="#9fa1a4" stroke-width="0.67"/><path d="M653.3 572.1H745.3" fill="none" stroke="#9fa1a4" stroke-width="0.67"/><path d="M48 600.5H89.6" fill="none" stroke="#9fa1a4" stroke-width="0.67"/><path d="M89.6 600.5H154.9" fill="none" stroke="#9fa1a4" stroke-width="0.67"/><path d="M154.9 600.5H362.2" fill="none" stroke="#9fa1a4" stroke-width="0.67"/><path d="M362.2 600.5H469.1" fill="none" stroke="#9fa1a4" stroke-width="0.67"/><path d="M469.1 600.5H561.2" fill="none" stroke="#9fa1a4" stroke-width="0.67"/><path d="M561.2 600.5H653.3" fill="none" stroke="#9fa1a4" stroke-width="0.67"/><path d="M653.3 600.5H745.3" fill="none" stroke="#9fa1a4" stroke-width="0.67"/><path d="M48 629H89.6" fill="none" stroke="#9fa1a4" stroke-width="0.67"/><path d="M89.6 629H154.9" fill="none" stroke="#9fa1a4" stroke-width="0.67"/><path d="M154.9 629H362.2" fill="none" stroke="#9fa1a4" stroke-width="0.67"/><path d="M362.2 629H469.1" fill="none" stroke="#9fa1a4" stroke-width="0.67"/><path d="M469.1 629H561.2" fill="none" stroke="#9fa1a4" stroke-width="0.67"/><path d="M561.2 629H653.3" fill="none" stroke="#9fa1a4" stroke-width="0.67"/><path d="M653.3 629H745.3" fill="none" stroke="#9fa1a4" stroke-width="0.67"/><path d="M48 657.5H89.6" fill="none" stroke="#9fa1a4" stroke-width="0.67"/><path d="M89.6 657.5H154.9" fill="none" stroke="#9fa1a4" stroke-width="0.67"/><path d="M154.9 657.5H362.2" fill="none" stroke="#9fa1a4" stroke-width="0.67"/><path d="M362.2 657.5H469.1" fill="none" stroke="#9fa1a4" stroke-width="0.67"/><path d="M469.1 657.5H561.2" fill="none" stroke="#9fa1a4" stroke-width="0.67"/><path d="M561.2 657.5H653.3" fill="none" stroke="#9fa1a4" stroke-width="0.67"/><path d="M653.3 657.5H745.3" fill="none" stroke="#9fa1a4" stroke-width="0.67"/><path d="M48 686H89.6" fill="none" stroke="#9fa1a4" stroke-width="0.67"/><path d="M89.6 686H154.9" fill="none" stroke="#9fa1a4" stroke-width="0.67"/><path d="M154.9 686H362.2" fill="none" stroke="#9fa1a4" stroke-width="0.67"/><path d="M362.2 686H469.1" fill="none" stroke="#9fa1a4" stroke-width="0.67"/><path d="M469.1 686H561.2" fill="none" stroke="#9fa1a4" stroke-width="0.67"/><path d="M561.2 686H653.3" fill="none" stroke="#9fa1a4" stroke-width="0.67"/><path d="M653.3 686H745.3" fill="none" stroke="#9fa1a4" stroke-width="0.67"/><path d="M48 714.5H89.6" fill="none" stroke="#9fa1a4" stroke-width="0.67"/><path d="M89.6 714.5H154.9" fill="none" stroke="#9fa1a4" stroke-width="0.67"/><path d="M154.9 714.5H362.2" fill="none" stroke="#9fa1a4" stroke-width="0.67"/><path d="M362.2 714.5H469.1" fill="none" stroke="#9fa1a4" stroke-width="0.67"/><path d="M469.1 714.5H561.2" fill="none" stroke="#9fa1a4" stroke-width="0.67"/><path d="M561.2 714.5H653.3" fill="none" stroke="#9fa1a4" stroke-width="0.67"/><path d="M653.3 714.5H745.3" fill="none" stroke="#9fa1a4" stroke-width="0.67"/><path d="M48 742.9H89.6" fill="none" stroke="#9fa1a4" stroke-width="0.67"/><path d="M89.6 742.9H154.9" fill="none" stroke="#9fa1a4" stroke-width="0.67"/><path d="M154.9 742.9H362.2" fill="none" stroke="#9fa1a4" stroke-width="0.67"/><path d="M362.2 742.9H469.1" fill="none" stroke="#9fa1a4" stroke-width="0.67"/><path d="M469.1 742.9H561.2" fill="none" stroke="#9fa1a4" stroke-width="0.67"/><path d="M561.2 742.9H653.3" fill="none" stroke="#9fa1a4" stroke-width="0.67"/><path d="M653.3 742.9H745.3" fill="none" stroke="#9fa1a4" stroke-width="0.67"/><path d="M48 771.4H89.6" fill="none" stroke="#9fa1a4" stroke-width="0.67"/><path d="M89.6 771.4H154.9" fill="none" stroke="#9fa1a4" stroke-width="0.67"/><path d="M154.9 771.4H362.2" fill="none" stroke="#9fa1a4" stroke-width="0.67"/><path d="M362.2 771.4H469.1" fill="none" stroke="#9fa1a4" stroke-width="0.67"/><path d="M469.1 771.4H561.2" fill="none" stroke="#9fa1a4" stroke-width="0.67"/><path d="M561.2 771.4H653.3" fill="none" stroke="#9fa1a4" stroke-width="0.67"/><path d="M653.3 771.4H745.3" fill="none" stroke="#9fa1a4" stroke-width="0.67"/><path d="M48 799.9H89.6" fill="none" stroke="#9fa1a4" stroke-width="0.67"/><path d="M89.6 799.9H154.9" fill="none" stroke="#9fa1a4" stroke-width="0.67"/><path d="M154.9 799.9H362.2" fill="none" stroke="#9fa1a4" stroke-width="0.67"/><path d="M362.2 799.9H469.1" fill="none" stroke="#9fa1a4" stroke-width="0.67"/><path d="M469.1 799.9H561.2" fill="none" stroke="#9fa1a4" stroke-width="0.67"/><path d="M561.2 799.9H653.3" fill="none" stroke="#9fa1a4" stroke-width="0.67"/><path d="M653.3 799.9H745.3" fill="none" stroke="#9fa1a4" stroke-width="0.67"/><path d="M48 828.4H89.6" fill="none" stroke="#9fa1a4" stroke-width="0.67"/><path d="M89.6 828.4H154.9" fill="none" stroke="#9fa1a4" stroke-width="0.67"/><path d="M154.9 828.4H362.2" fill="none" stroke="#9fa1a4" stroke-width="0.67"/><path d="M362.2 828.4H469.1" fill="none" stroke="#9fa1a4" stroke-width="0.67"/><path d="M469.1 828.4H561.2" fill="none" stroke="#9fa1a4" stroke-width="0.67"/><path d="M561.2 828.4H653.3" fill="none" stroke="#9fa1a4" stroke-width="0.67"/><path d="M653.3 828.4H745.3" fill="none" stroke="#9fa1a4" stroke-width="0.67"/><path d="M48 856.9H89.6" fill="none" stroke="#9fa1a4" stroke-width="0.67"/><path d="M89.6 856.9H154.9" fill="none" stroke="#9fa1a4" stroke-width="0.67"/><path d="M154.9 856.9H362.2" fill="none" stroke="#9fa1a4" stroke-width="0.67"/><path d="M362.2 856.9H469.1" fill="none" stroke="#9fa1a4" stroke-width="0.67"/><path d="M469.1 856.9H561.2" fill="none" stroke="#9fa1a4" stroke-width="0.67"/><path d="M561.2 856.9H653.3" fill="none" stroke="#9fa1a4" stroke-width="0.67"/><path d="M653.3 856.9H745.3" fill="none" stroke="#9fa1a4" stroke-width="0.67"/></svg></svg>