<svg xmlns="http://www.w3.org/2000/svg" width="793.33" height="1122.67" viewBox="0 0 793.33 1122.67"><svg x="46.67" y="105.33" width="700" height="970.67" viewBox="46.67 105.33 700 970.67"><path d="M48 140H745.3V106.7H48Z" fill="#ed1c24"/><path d="M48 173.3H89.6V140H48Z" fill="#9fa1a4"/><path d="M89.6 173.3H154.9V140H89.6Z" fill="#9fa1a4"/><path d="M154.9 173.3H362.2V140H154.9Z" fill="#9fa1a4"/><path d="M362.2 173.3H469.1V140H362.2Z" fill="#9fa1a4"/><path d="M469.1 173.3H561.2V140H469.1Z" fill="#9fa1a4"/><path d="M561.2 173.3H653.3V140H561.2Z" fill="#9fa1a4"/><path d="M653.3 173.3H745.3V140H653.3Z" fill="#9fa1a4"/><path d="M89.6 173.3V140" fill="none" stroke="#ffffff" stroke-width="0.67"/><path d="M154.9 173.3V140" fill="none" stroke="#ffffff" stroke-width="0.67"/><path d="M362.2 173.3V140" fill="none" stroke="#ffffff" stroke-width="0.67"/><path d="M469.1 173.3V140" fill="none" stroke="#ffffff" stroke-width="0.67"/><path d="M561.2 173.3V140" fill="none" stroke="#ffffff" stroke-width="0.67"/><path d="M653.3 173.3V140" fill="none" stroke="#ffffff" stroke-width="0.67"/><path d="M745.3 173.3V140" fill="none" stroke="#ffffff" stroke-width="0.67"/><path d="M48 201.8H89.6" fill="none" stroke="#9fa1a4" stroke-width="0.67"/><path d="M89.6 201.8H154.9" fill="none" stroke="#9fa1a4" stroke-width="0.67"/><path d="M154.9 201.8H362.2" fill="none" stroke="#9fa1a4" stroke-width="0.67"/><path d="M362.2 201.8H469.1" fill="none" stroke="#9fa1a4" stroke-width="0.67"/><path d="M469.1 201.8H561.2" fill="none" stroke="#9fa1a4" stroke-width="0.67"/><path d="M561.2 201.8H653.3" fill="none" stroke="#9fa1a4" stroke-width="0.67"/><path d="M653.3 201.8H745.3" fill="none" stroke="#9fa1a4" stroke-width="0.67"/><path d="M48 230.3H89.6" fill="none" stroke="#9fa1a4" stroke-width="0.67"/><path d="M89.6 230.3H154.9" fill="none" stroke="#9fa1a4" stroke-width="0.67"/><path d="M154.9 230.3H362.2" fill="none" stroke="#9fa1a4" stroke-width="0.67"/><path d="M362.2 230.3H469.1" fill="none" stroke="#9fa1a4" stroke-width="0.67"/><path d="M469.1 230.3H561.2" fill="none" stroke="#9fa1a4" stroke-width="0.67"/><path d="M561.2 230.3H653.3" fill="none" stroke="#9fa1a4" stroke-width="0.67"/><path d="M653.3 230.3H745.3" fill="none" stroke="#9fa1a4" stroke-width="0.67"/><path d="M48 248.5H89.6" fill="none" stroke="#9fa1a4" stroke-width="0.67"/><path d="M89.6 248.5H154.9" fill="none" stroke="#9fa1a4" stroke-width="0.67"/><path d="M154.9 248.5H362.2" fill="none" stroke="#9fa1a4" stroke-width="0.67"/><path d="M362.2 248.5H469.1" fill="none" stroke="#9fa1a4" stroke-width="0.67"/><path d="M469.1 248.5H561.2" fill="none" stroke="#9fa1a4" stroke-width="0.67"/><path d="M561.2 248.5H653.3" fill="none" stroke="#9fa1a4" stroke-width="0.67"/><path d="M653.3 248.5H745.3" fill="none" stroke="#9fa1a4" stroke-width="0.67"/><path d="M48 277H89.6" fill="none" stroke="#9fa1a4" stroke-width="0.67"/><path d="M89.6 277H154.9" fill="none" stroke="#9fa1a4" stroke-width="0.67"/><path d="M154.9 277H362.2" fill="none" stroke="#9fa1a4" stroke-width="0.67"/><path d="M362.2 277H469.1" fill="none" stroke="#9fa1a4" stroke-width="0.67"/><path d="M469.1 277H561.2" fill="none" stroke="#9fa1a4" stroke-width="0.67"/><path d="M561.2 277H653.3" fill="none" stroke="#9fa1a4" stroke-width="0.67"/><path d="M653.3 277H745.3" fill="none" stroke="#9fa1a4" stroke-width="0.67"/><path d="M48 305.5H89.6" fill="none" stroke="#9fa1a4" stroke-width="0.67"/><path d="M89.6 305.5H154.9" fill="none" stroke="#9fa1a4" stroke-width="0.67"/><path d="M154.9 305.5H362.2" fill="none" stroke="#9fa1a4" stroke-width="0.67"/><path d="M362.2 305.5H469.1" fill="none" stroke="#9fa1a4" stroke-width="0.67"/><path d="M469.1 305.5H561.2" fill="none" stroke="#9fa1a4" stroke-width="0.67"/><path d="M561.2 305.5H653.3" fill="none" stroke="#9fa1a4" stroke-width="0.67"/><path d="M653.3 305.5H745.3" fill="none" stroke="#9fa1a4" stroke-width="0.67"/><path d="M48 334H89.6" fill="none" stroke="#9fa1a4" stroke-width="0.67"/><path d="M89.6 334H154.9" fill="none" stroke="#9fa1a4" stroke-width="0.67"/><path d="M154.9 334H362.2" fill="none" stroke="#9fa1a4" stroke-width="0.67"/><path d="M362.2 334H469.1" fill="none" stroke="#9fa1a4" stroke-width="0.67"/><path d="M469.1 334H561.2" fill="none" stroke="#9fa1a4" stroke-width="0.67"/><path d="M561.2 334H653.3" fill="none" stroke="#9fa1a4" stroke-width="0.67"/><path d="M653.3 334H745.3" fill="none" stroke="#9fa1a4" stroke-width="0.67"/><path d="M48 362.5H89.6" fill="none" stroke="#9fa1a4" stroke-width="0.67"/><path d="M89.6 362.5H154.9" fill="none" stroke="#9fa1a4" stroke-width="0.67"/><path d="M154.9 362.5H362.2" fill="none" stroke="#9fa1a4" stroke-width="0.67"/><path d="M362.2 362.5H469.1" fill="none" stroke="#9fa1a4" stroke-width="0.67"/><path d="M469.1 362.5H561.2" fill="none" stroke="#9fa1a4" stroke-width="0.67"/><path d="M561.2 362.5H653.3" fill="none" stroke="#9fa1a4" stroke-width="0.67"/><path d="M653.3 362.5H745.3" fill="none" stroke="#9fa1a4" stroke-width="0.67"/><path d="M48 390.9H89.6" fill="none" stroke="#9fa1a4" stroke-width="0.67"/><path d="M89.6 390.9H154.9" fill="none" stroke="#9fa1a4" stroke-width="0.67"/><path d="M154.9 390.9H362.2" fill="none" stroke="#9fa1a4" stroke-width="0.67"/><path d="M362.2 390.9H469.1" fill="none" stroke="#9fa1a4" stroke-width="0.67"/><path d="M469.1 390.9H561.2" fill="none" stroke="#9fa1a4" stroke-width="0.67"/><path d="M561.2 390.9H653.3" fill="none" stroke="#9fa1a4" stroke-width="0.67"/><path d="M653.3 390.9H745.3" fill="none" stroke="#9fa1a4" stroke-width="0.67"/><path d="M48 419.4H89.6" fill="none" stroke="#9fa1a4" stroke-width="0.67"/><path d="M89.6 419.4H154.9" fill="none" stroke="#9fa1a4" stroke-width="0.67"/><path d="M154.9 419.4H362.2" fill="none" stroke="#9fa1a4" stroke-width="0.67"/><path d="M362.2 419.4H469.1" fill="none" stroke="#9fa1a4" stroke-width="0.67"/><path d="M469.1 419.4H561.2" fill="none" stroke="#9fa1a4" stroke-width="0.67"/><path d="M561.2 419.4H653.3" fill="none" stroke="#9fa1a4" stroke-width="0.67"/><path d="M653.3 419.4H745.3" fill="none" stroke="#9fa1a4" stroke-width="0.67"/><path d="M48 447.9H89.6" fill="none" stroke="#9fa1a4" stroke-width="0.67"/><path d="M89.6 447.9H154.9" fill="none" stroke="#9fa1a4" stroke-width="0.67"/><path d="M154.9 447.9H362.2" fill="none" stroke="#9fa1a4" stroke-width="0.67"/><path d="M362.2 447.9H469.1" fill="none" stroke="#9fa1a4" stroke-width="0.67"/><path d="M469.1 447.9H561.2" fill="none" stroke="#9fa1a4" stroke-width="0.67"/><path d="M561.2 447.9H653.3" fill="none" stroke="#9fa1a4" stroke-width="0.67"/><path d="M653.3 447.9H745.3" fill="none" stroke="#9fa1a4" stroke-width="0.67"/><path d="M48 476.4H89.6" fill="none" stroke="#9fa1a4" stroke-width="0.67"/><path d="M89.6 476.4H154.9" fill="none" stroke="#9fa1a4" stroke-width="0.67"/><path d="M154.9 476.4H362.2" fill="none" stroke="#9fa1a4" stroke-width="0.67"/><path d="M362.2 476.4H469.1" fill="none" stroke="#9fa1a4" stroke-width="0.67"/><path d="M469.1 476.4H561.2" fill="none" stroke="#9fa1a4" stroke-width="0.67"/><path d="M561.2 476.4H653.3" fill="none" stroke="#9fa1a4" stroke-width="0.67"/><path d="M653.3 476.4H745.3" fill="none" stroke="#9fa1a4" stroke-width="0.67"/><path d="M48 504.9H89.6" fill="none" stroke="#9fa1a4" stroke-width="0.67"/><path d="M89.6 504.9H154.9" fill="none" stroke="#9fa1a4" stroke-width="0.67"/><path d="M154.9 504.9H362.2" fill="none" stroke="#9fa1a4" stroke-width="0.67"/><path d="M362.2 504.9H469.1" fill="none" stroke="#9fa1a4" stroke-width="0.67"/><path d="M469.1 504.9H561.2" fill="none" stroke="#9fa1a4" stroke-width="0.67"/><path d="M561.2 504.9H653.3" fill="none" stroke="#9fa1a4" stroke-width="0.67"/><path d="M653.3 504.9H745.3" fill="none" stroke="#9fa1a4" stroke-width="0.67"/><path d="M48 533.3H89.6" fill="none" stroke="#9fa1a4" stroke-width="0.67"/><path d="M89.6 533.3H154.9" fill="none" stroke="#9fa1a4" stroke-width="0.67"/><path d="M154.9 533.3H362.2" fill="none" stroke="#9fa1a4" stroke-width="0.67"/><path d="M362.2 533.3H469.1" fill="none" stroke="#9fa1a4" stroke-width="0.67"/><path d="M469.1 533.3H561.2" fill="none" stroke="#9fa1a4" stroke-width="0.67"/><path d="M561.2 533.3H653.3" fill="none" stroke="#9fa1a4" stroke-width="0.67"/><path d="M653.3 533.3H745.3" fill="none" stroke="#9fa1a4" stroke-width="0.67"/><path d="M48 561.8H89.6" fill="none" stroke="#9fa1a4" stroke-width="0.67"/><path d="M89.6 561.8H154.9" fill="none" stroke="#9fa1a4" stroke-width="0.67"/><path d="M154.9 561.8H362.2" fill="none" stroke="#9fa1a4" stroke-width="0.67"/><path d="M362.2 561.8H469.1" fill="none" stroke="#9fa1a4" stroke-width="0.67"/><path d="M469.1 561.8H561.2" fill="none" stroke="#9fa1a4" stroke-width="0.67"/><path d="M561.2 561.8H653.3" fill="none" stroke="#9fa1a4" stroke-width="0.67"/><path d="M653.3 561.8H745.3" fill="none" stroke="#9fa1a4" stroke-width="0.67"/><path d="M48 590.3H89.6" fill="none" stroke="#9fa1a4" stroke-width="0.67"/><path d="M89.6 590.3H154.9" fill="none" stroke="#9fa1a4" stroke-width="0.67"/><path d="M154.9 590.3H362.2" fill="none" stroke="#9fa1a4" stroke-width="0.67"/><path d="M362.2 590.3H469.1" fill="none" stroke="#9fa1a4" stroke-width="0.67"/><path d="M469.1 590.3H561.2" fill="none" stroke="#9fa1a4" stroke-width="0.67"/><path d="M561.2 590.3H653.3" fill="none" stroke="#9fa1a4" stroke-width="0.67"/><path d="M653.3 590.3H745.3" fill="none" stroke="#9fa1a4" stroke-width="0.67"/><path d="M48 618.8H89.6" fill="none" stroke="#9fa1a4" stroke-width="0.67"/><path d="M89.6 618.8H154.9" fill="none" stroke="#9fa1a4" stroke-width="0.67"/><path d="M154.9 618.8H362.2" fill="none" stroke="#9fa1a4" stroke-width="0.67"/><path d="M362.2 618.8H469.1" fill="none" stroke="#9fa1a4" stroke-width="0.67"/><path d="M469.1 618.8H561.2" fill="none" stroke="#9fa1a4" stroke-width="0.67"/><path d="M561.2 618.8H653.3" fill="none" stroke="#9fa1a4" stroke-width="0.67"/><path d="M653.3 618.8H745.3" fill="none" stroke="#9fa1a4" stroke-width="0.67"/><path d="M48 647.3H89.6" fill="none" stroke="#9fa1a4" stroke-width="0.67"/><path d="M89.6 647.3H154.9" fill="none" stroke="#9fa1a4" stroke-width="0.67"/><path d="M154.9 647.3H362.2" fill="none" stroke="#9fa1a4" stroke-width="0.67"/><path d="M362.2 647.3H469.1" fill="none" stroke="#9fa1a4" stroke-width="0.67"/><path d="M469.1 647.3H561.2" fill="none" stroke="#9fa1a4" stroke-width="0.67"/><path d="M561.2 647.3H653.3" fill="none" stroke="#9fa1a4" stroke-width="0.67"/><path d="M653.3 647.3H745.3" fill="none" stroke="#9fa1a4" stroke-width="0.67"/><path d="M48 675.7H89.6" fill="none" stroke="#9fa1a4" stroke-width="0.67"/><path d="M89.6 675.7H154.9" fill="none" stroke="#9fa1a4" stroke-width="0.67"/><path d="M154.9 675.7H362.2" fill="none" stroke="#9fa1a4" stroke-width="0.67"/><path d="M362.2 675.7H469.1" fill="none" stroke="#9fa1a4" stroke-width="0.67"/><path d="M469.1 675.7H561.2" fill="none" stroke="#9fa1a4" stroke-width="0.67"/><path d="M561.2 675.7H653.3" fill="none" stroke="#9fa1a4" stroke-width="0.67"/><path d="M653.3 675.7H745.3" fill="none" stroke="#9fa1a4" stroke-width="0.67"/><path d="M48 704.2H89.6" fill="none" stroke="#9fa1a4" stroke-width="0.67"/><path d="M89.6 704.2H154.9" fill="none" stroke="#9fa1a4" stroke-width="0.67"/><path d="M154.9 704.2H362.2" fill="none" stroke="#9fa1a4" stroke-width="0.67"/><path d="M362.2 704.2H469.1" fill="none" stroke="#9fa1a4" stroke-width="0.67"/><path d="M469.1 704.2H561.2" fill="none" stroke="#9fa1a4" stroke-width="0.67"/><path d="M561.2 704.2H653.3" fill="none" stroke="#9fa1a4" stroke-width="0.67"/><path d="M653.3 704.2H745.3" fill="none" stroke="#9fa1a4" stroke-width="0.67"/><path d="M48 742.9H89.6" fill="none" stroke="#9fa1a4" stroke-width="0.67"/><path d="M89.6 742.9H154.9" fill="none" stroke="#9fa1a4" stroke-width="0.67"/><path d="M154.9 742.9H362.2" fill="none" stroke="#9fa1a4" stroke-width="0.67"/><path d="M362.2 742.9H469.1" fill="none" stroke="#9fa1a4" stroke-width="0.67"/><path d="M469.1 742.9H561.2" fill="none" stroke="#9fa1a4" stroke-width="0.67"/><path d="M561.2 742.9H653.3" fill="none" stroke="#9fa1a4" stroke-width="0.67"/><path d="M653.3 742.9H745.3" fill="none" stroke="#9fa1a4" stroke-width="0.67"/><path d="M48 771.4H89.6" fill="none" stroke="#9fa1a4" stroke-width="0.67"/><path d="M89.6 771.4H154.9" fill="none" stroke="#9fa1a4" stroke-width="0.67"/><path d="M154.9 771.4H362.2" fill="none" stroke="#9fa1a4" stroke-width="0.67"/><path d="M362.2 771.4H469.1" fill="none" stroke="#9fa1a4" stroke-width="0.67"/><path d="M469.1 771.4H561.2" fill="none" stroke="#9fa1a4" stroke-width="0.67"/><path d="M561.2 771.4H653.3" fill="none" stroke="#9fa1a4" stroke-width="0.67"/><path d="M653.3 771.4H745.3" fill="none" stroke="#9fa1a4" stroke-width="0.67"/><path d="M48 799.9H89.6" fill="none" stroke="#9fa1a4" stroke-width="0.67"/><path d="M89.6 799.9H154.9" fill="none" stroke="#9fa1a4" stroke-width="0.67"/><path d="M154.9 799.9H362.2" fill="none" stroke="#9fa1a4" stroke-width="0.67"/><path d="M362.2 799.9H469.1" fill="none" stroke="#9fa1a4" stroke-width="0.67"/><path d="M469.1 799.9H561.2" fill="none" stroke="#9fa1a4" stroke-width="0.67"/><path d="M561.2 799.9H653.3" fill="none" stroke="#9fa1a4" stroke-width="0.67"/><path d="M653.3 799.9H745.3" fill="none" stroke="#9fa1a4" stroke-width="0.67"/><path d="M48 828.4H89.6" fill="none" stroke="#9fa1a4" stroke-width="0.67"/><path d="M89.6 828.4H154.9" fill="none" stroke="#9fa1a4" stroke-width="0.67"/><path d="M154.9 828.4H362.2" fill="none" stroke="#9fa1a4" stroke-width="0.67"/><path d="M362.2 828.4H469.1" fill="none" stroke="#9fa1a4" stroke-width="0.67"/><path d="M469.1 828.4H561.2" fill="none" stroke="#9fa1a4" stroke-width="0.67"/><path d="M561.2 828.4H653.3" fill="none" stroke="#9fa1a4" stroke-width="0.67"/><path d="M653.3 828.4H745.3" fill="none" stroke="#9fa1a4" stroke-width="0.67"/><path d="M48 856.9H89.6" fill="none" stroke="#9fa1a4" stroke-width="0.67"/><path d="M89.6 856.9H154.9" fill="none" stroke="#9fa1a4" stroke-width="0.67"/><path d="M154.9 856.9H362.2" fill="none" stroke="#9fa1a4" stroke-width="0.67"/><path d="M362.2 856.9H469.1" fill="none" stroke="#9fa1a4" stroke-width="0.67"/><path d="M469.1 856.9H561.2" fill="none" stroke="#9fa1a4" stroke-width="0.67"/><path d="M561.2 856.9H653.3" fill="none" stroke="#9fa1a4" stroke-width="0.67"/><path d="M653.3 856.9H745.3" fill="none" stroke="#9fa1a4" stroke-width="0.67"/><path d="M48 885.3H89.6" fill="none" stroke="#9fa1a4" stroke-width="0.67"/><path d="M89.6 885.3H154.9" fill="none" stroke="#9fa1a4" stroke-width="0.67"/><path d="M154.9 885.3H362.2" fill="none" stroke="#9fa1a4" stroke-width="0.67"/><path d="M362.2 885.3H469.1" fill="none" stroke="#9fa1a4" stroke-width="0.67"/><path d="M469.1 885.3H561.2" fill="none" stroke="#9fa1a4" stroke-width="0.67"/><path d="M561.2 885.3H653.3" fill="none" stroke="#9fa1a4" stroke-width="0.67"/><path d="M653.3 885.3H745.3" fill="none" stroke="#9fa1a4" stroke-width="0.67"/><path d="M48 913.8H89.6" fill="none" stroke="#9fa1a4" stroke-width="0.67"/><path d="M89.6 913.8H154.9" fill="none" stroke="#9fa1a4" stroke-width="0.67"/><path d="M154.9 913.8H362.2" fill="none" stroke="#9fa1a4" stroke-width="0.67"/><path d="M362.2 913.8H469.1" fill="none" stroke="#9fa1a4" stroke-width="0.67"/><path d="M469.1 913.8H561.2" fill="none" stroke="#9fa1a4" stroke-width="0.67"/><path d="M561.2 913.8H653.3" fill="none" stroke="#9fa1a4" stroke-width="0.67"/><path d="M653.3 913.8H745.3" fill="none" stroke="#9fa1a4" stroke-width="0.67"/><path d="M48 942.3H89.6" fill="none" stroke="#9fa1a4" stroke-width="0.67"/><path d="M89.6 942.3H154.9" fill="none" stroke="#9fa1a4" stroke-width="0.67"/><path d="M154.9 942.3H362.2" fill="none" stroke="#9fa1a4" stroke-width="0.67"/><path d="M362.2 942.3H469.1" fill="none" stroke="#9fa1a4" stroke-width="0.67"/><path d="M469.1 942.3H561.2" fill="none" stroke="#9fa1a4" stroke-width="0.67"/><path d="M561.2 942.3H653.3" fill="none" stroke="#9fa1a4" stroke-width="0.67"/><path d="M653.3 942.3H745.3" fill="none" stroke="#9fa1a4" stroke-width="0.67"/><path d="M48 970.8H89.6" fill="none" stroke="#9fa1a4" stroke-width="0.67"/><path d="M89.6 970.8H154.9" fill="none" stroke="#9fa1a4" stroke-width="0.67"/><path d="M154.9 970.8H362.2" fill="none" stroke="#9fa1a4" stroke-width="0.67"/><path d="M362.2 970.8H469.1" fill="none" stroke="#9fa1a4" stroke-width="0.67"/><path d="M469.1 970.8H561.2" fill="none" stroke="#9fa1a4" stroke-width="0.67"/><path d="M561.2 970.8H653.3" fill="none" stroke="#9fa1a4" stroke-width="0.67"/><path d="M653.3 970.8H745.3" fill="none" stroke="#9fa1a4" stroke-width="0.67"/><path d="M48 999.3H89.6" fill="none" stroke="#9fa1a4" stroke-width="0.67"/><path d="M89.6 999.3H154.9" fill="none" stroke="#9fa1a4" stroke-width="0.67"/><path d="M154.9 999.3H362.2" fill="none" stroke="#9fa1a4" stroke-width="0.67"/><path d="M362.2 999.3H469.1" fill="none" stroke="#9fa1a4" stroke-width="0.67"/><path d="M469.1 999.3H561.2" fill="none" stroke="#9fa1a4" stroke-width="0.67"/><path d="M561.2 999.3H653.3" fill="none" stroke="#9fa1a4" stroke-width="0.67"/><path d="M653.3 999.3H745.3" fill="none" stroke="#9fa1a4" stroke-width="0.67"/><path d="M48 1027.7H89.6" fill="none" stroke="#9fa1a4" stroke-width="0.67"/><path d="M89.6 1027.7H154.9" fill="none" stroke="#9fa1a4" stroke-width="0.67"/><path d="M154.9 1027.7H362.2" fill="none" stroke="#9fa1a4" stroke-width="0.67"/><path d="M362.2 1027.7H469.1" fill="none" stroke="#9fa1a4" stroke-width="0.67"/><path d="M469.1 1027.7H561.2" fill="none" stroke="#9fa1a4" stroke-width="0.67"/><path d="M561.2 1027.7H653.3" fill="none" stroke="#9fa1a4" stroke-width="0.67"/><path d="M653.3 1027.7H745.3" fill="none" stroke="#9fa1a4" stroke-width="0.67"/><path d="M48 1056.2H89.6" fill="none" stroke="#9fa1a4" stroke-width="0.67"/><path d="M89.6 1056.2H154.9" fill="none" stroke="#9fa1a4" stroke-width="0.67"/><path d="M154.9 1056.2H362.2" fill="none" stroke="#9fa1a4" stroke-width="0.67"/><path d="M362.2 1056.2H469.1" fill="none" stroke="#9fa1a4" stroke-width="0.67"/><path d="M469.1 1056.2H561.2" fill="none" stroke="#9fa1a4" stroke-width="0.67"/><path d="M561.2 1056.2H653.3" fill="none" stroke="#9fa1a4" stroke-width="0.67"/><path d="M653.3 1056.2H745.3" fill="none" stroke="#9fa1a4" stroke-width="0.67"/><path d="M48 1074.7H89.6" fill="none" stroke="#9fa1a4" stroke-width="0.67"/><path d="M89.6 1074.7H154.9" fill="none" stroke="#9fa1a4" stroke-width="0.67"/><path d="M154.9 1074.7H362.2" fill="none" stroke="#9fa1a4" stroke-width="0.67"/><path d="M362.2 1074.7H469.1" fill="none" stroke="#9fa1a4" stroke-width="0.67"/><path d="M469.1 1074.7H561.2" fill="none" stroke="#9fa1a4" stroke-width="0.67"/><path d="M561.2 1074.7H653.3" fill="none" stroke="#9fa1a4" stroke-width="0.67"/><path d="M653.3 1074.7H745.3" fill="none" stroke="#9fa1a4" stroke-width="0.67"/></svg></svg>