<svg xmlns="http://www.w3.org/2000/svg" width="793.33" height="1122.67" viewBox="0 0 793.33 1122.67"><svg x="46.67" y="105.33" width="700" height="714.13" viewBox="46.67 105.33 700 714.13"><path d="M48 140H745.3V106.7H48Z" fill="#ed1c24"/><path d="M48 173.3H89.6V140H48Z" fill="#9fa1a4"/><path d="M89.6 173.3H154.9V140H89.6Z" fill="#9fa1a4"/><path d="M154.9 173.3H362.2V140H154.9Z" fill="#9fa1a4"/><path d="M362.2 173.3H469.1V140H362.2Z" fill="#9fa1a4"/><path d="M469.1 173.3H561.2V140H469.1Z" fill="#9fa1a4"/><path d="M561.2 173.3H653.3V140H561.2Z" fill="#9fa1a4"/><path d="M653.3 173.3H745.3V140H653.3Z" fill="#9fa1a4"/><path d="M89.6 173.3V140" fill="none" stroke="#ffffff" stroke-width="0.67"/><path d="M154.9 173.3V140" fill="none" stroke="#ffffff" stroke-width="0.67"/><path d="M362.2 173.3V140" fill="none" stroke="#ffffff" stroke-width="0.67"/><path d="M469.1 173.3V140" fill="none" stroke="#ffffff" stroke-width="0.67"/><path d="M561.2 173.3V140" fill="none" stroke="#ffffff" stroke-width="0.67"/><path d="M653.3 173.3V140" fill="none" stroke="#ffffff" stroke-width="0.67"/><path d="M745.3 173.3V140" fill="none" stroke="#ffffff" stroke-width="0.67"/><path d="M48 191.6H89.6" fill="none" stroke="#9fa1a4" stroke-width="0.67"/><path d="M89.6 191.6H154.9" fill="none" stroke="#9fa1a4" stroke-width="0.67"/><path d="M154.9 191.6H362.2" fill="none" stroke="#9fa1a4" stroke-width="0.67"/><path d="M362.2 191.6H469.1" fill="none" stroke="#9fa1a4" stroke-width="0.67"/><path d="M469.1 191.6H561.2" fill="none" stroke="#9fa1a4" stroke-width="0.67"/><path d="M561.2 191.6H653.3" fill="none" stroke="#9fa1a4" stroke-width="0.67"/><path d="M653.3 191.6H745.3" fill="none" stroke="#9fa1a4" stroke-width="0.67"/><path d="M48 220.1H89.6" fill="none" stroke="#9fa1a4" stroke-width="0.67"/><path d="M89.6 220.1H154.9" fill="none" stroke="#9fa1a4" stroke-width="0.67"/><path d="M154.9 220.1H362.2" fill="none" stroke="#9fa1a4" stroke-width="0.67"/><path d="M362.2 220.1H469.1" fill="none" stroke="#9fa1a4" stroke-width="0.67"/><path d="M469.1 220.1H561.2" fill="none" stroke="#9fa1a4" stroke-width="0.67"/><path d="M561.2 220.1H653.3" fill="none" stroke="#9fa1a4" stroke-width="0.67"/><path d="M653.3 220.1H745.3" fill="none" stroke="#9fa1a4" stroke-width="0.67"/><path d="M48 248.5H89.6" fill="none" stroke="#9fa1a4" stroke-width="0.67"/><path d="M89.6 248.5H154.9" fill="none" stroke="#9fa1a4" stroke-width="0.67"/><path d="M154.9 248.5H362.2" fill="none" stroke="#9fa1a4" stroke-width="0.67"/><path d="M362.2 248.5H469.1" fill="none" stroke="#9fa1a4" stroke-width="0.67"/><path d="M469.1 248.5H561.2" fill="none" stroke="#9fa1a4" stroke-width="0.67"/><path d="M561.2 248.5H653.3" fill="none" stroke="#9fa1a4" stroke-width="0.67"/><path d="M653.3 248.5H745.3" fill="none" stroke="#9fa1a4" stroke-width="0.67"/><path d="M48 277H89.6" fill="none" stroke="#9fa1a4" stroke-width="0.67"/><path d="M89.6 277H154.9" fill="none" stroke="#9fa1a4" stroke-width="0.67"/><path d="M154.9 277H362.2" fill="none" stroke="#9fa1a4" stroke-width="0.67"/><path d="M362.2 277H469.1" fill="none" stroke="#9fa1a4" stroke-width="0.67"/><path d="M469.1 277H561.2" fill="none" stroke="#9fa1a4" stroke-width="0.67"/><path d="M561.2 277H653.3" fill="none" stroke="#9fa1a4" stroke-width="0.67"/><path d="M653.3 277H745.3" fill="none" stroke="#9fa1a4" stroke-width="0.67"/><path d="M48 295.3H89.6" fill="none" stroke="#9fa1a4" stroke-width="0.67"/><path d="M89.6 295.3H154.9" fill="none" stroke="#9fa1a4" stroke-width="0.67"/><path d="M154.9 295.3H362.2" fill="none" stroke="#9fa1a4" stroke-width="0.67"/><path d="M362.2 295.3H469.1" fill="none" stroke="#9fa1a4" stroke-width="0.67"/><path d="M469.1 295.3H561.2" fill="none" stroke="#9fa1a4" stroke-width="0.67"/><path d="M561.2 295.3H653.3" fill="none" stroke="#9fa1a4" stroke-width="0.67"/><path d="M653.3 295.3H745.3" fill="none" stroke="#9fa1a4" stroke-width="0.67"/><path d="M48 323.7H89.6" fill="none" stroke="#9fa1a4" stroke-width="0.67"/><path d="M89.6 323.7H154.9" fill="none" stroke="#9fa1a4" stroke-width="0.67"/><path d="M154.9 323.7H362.2" fill="none" stroke="#9fa1a4" stroke-width="0.67"/><path d="M362.2 323.7H469.1" fill="none" stroke="#9fa1a4" stroke-width="0.67"/><path d="M469.1 323.7H561.2" fill="none" stroke="#9fa1a4" stroke-width="0.67"/><path d="M561.2 323.7H653.3" fill="none" stroke="#9fa1a4" stroke-width="0.67"/><path d="M653.3 323.7H745.3" fill="none" stroke="#9fa1a4" stroke-width="0.67"/><path d="M48 352.2H89.6" fill="none" stroke="#9fa1a4" stroke-width="0.67"/><path d="M89.6 352.2H154.9" fill="none" stroke="#9fa1a4" stroke-width="0.67"/><path d="M154.9 352.2H362.2" fill="none" stroke="#9fa1a4" stroke-width="0.67"/><path d="M362.2 352.2H469.1" fill="none" stroke="#9fa1a4" stroke-width="0.67"/><path d="M469.1 352.2H561.2" fill="none" stroke="#9fa1a4" stroke-width="0.67"/><path d="M561.2 352.2H653.3" fill="none" stroke="#9fa1a4" stroke-width="0.67"/><path d="M653.3 352.2H745.3" fill="none" stroke="#9fa1a4" stroke-width="0.67"/><path d="M48 380.7H89.6" fill="none" stroke="#9fa1a4" stroke-width="0.67"/><path d="M89.6 380.7H154.9" fill="none" stroke="#9fa1a4" stroke-width="0.67"/><path d="M154.9 380.7H362.2" fill="none" stroke="#9fa1a4" stroke-width="0.67"/><path d="M362.2 380.7H469.1" fill="none" stroke="#9fa1a4" stroke-width="0.67"/><path d="M469.1 380.7H561.2" fill="none" stroke="#9fa1a4" stroke-width="0.67"/><path d="M561.2 380.7H653.3" fill="none" stroke="#9fa1a4" stroke-width="0.67"/><path d="M653.3 380.7H745.3" fill="none" stroke="#9fa1a4" stroke-width="0.67"/><path d="M48 409.2H89.6" fill="none" stroke="#9fa1a4" stroke-width="0.67"/><path d="M89.6 409.2H154.9" fill="none" stroke="#9fa1a4" stroke-width="0.67"/><path d="M154.9 409.2H362.2" fill="none" stroke="#9fa1a4" stroke-width="0.67"/><path d="M362.2 409.2H469.1" fill="none" stroke="#9fa1a4" stroke-width="0.67"/><path d="M469.1 409.2H561.2" fill="none" stroke="#9fa1a4" stroke-width="0.67"/><path d="M561.2 409.2H653.3" fill="none" stroke="#9fa1a4" stroke-width="0.67"/><path d="M653.3 409.2H745.3" fill="none" stroke="#9fa1a4" stroke-width="0.67"/><path d="M48 437.7H89.6" fill="none" stroke="#9fa1a4" stroke-width="0.67"/><path d="M89.6 437.7H154.9" fill="none" stroke="#9fa1a4" stroke-width="0.67"/><path d="M154.9 437.7H362.2" fill="none" stroke="#9fa1a4" stroke-width="0.67"/><path d="M362.2 437.7H469.1" fill="none" stroke="#9fa1a4" stroke-width="0.67"/><path d="M469.1 437.7H561.2" fill="none" stroke="#9fa1a4" stroke-width="0.67"/><path d="M561.2 437.7H653.3" fill="none" stroke="#9fa1a4" stroke-width="0.67"/><path d="M653.3 437.7H745.3" fill="none" stroke="#9fa1a4" stroke-width="0.67"/><path d="M48 466.1H89.6" fill="none" stroke="#9fa1a4" stroke-width="0.67"/><path d="M89.6 466.1H154.9" fill="none" stroke="#9fa1a4" stroke-width="0.67"/><path d="M154.9 466.1H362.2" fill="none" stroke="#9fa1a4" stroke-width="0.67"/><path d="M362.2 466.1H469.1" fill="none" stroke="#9fa1a4" stroke-width="0.67"/><path d="M469.1 466.1H561.2" fill="none" stroke="#9fa1a4" stroke-width="0.67"/><path d="M561.2 466.1H653.3" fill="none" stroke="#9fa1a4" stroke-width="0.67"/><path d="M653.3 466.1H745.3" fill="none" stroke="#9fa1a4" stroke-width="0.67"/><path d="M48 494.6H89.6" fill="none" stroke="#9fa1a4" stroke-width="0.67"/><path d="M89.6 494.6H154.9" fill="none" stroke="#9fa1a4" stroke-width="0.67"/><path d="M154.9 494.6H362.2" fill="none" stroke="#9fa1a4" stroke-width="0.67"/><path d="M362.2 494.6H469.1" fill="none" stroke="#9fa1a4" stroke-width="0.67"/><path d="M469.1 494.6H561.2" fill="none" stroke="#9fa1a4" stroke-width="0.67"/><path d="M561.2 494.6H653.3" fill="none" stroke="#9fa1a4" stroke-width="0.67"/><path d="M653.3 494.6H745.3" fill="none" stroke="#9fa1a4" stroke-width="0.67"/><path d="M48 523.1H89.6" fill="none" stroke="#9fa1a4" stroke-width="0.67"/><path d="M89.6 523.1H154.9" fill="none" stroke="#9fa1a4" stroke-width="0.67"/><path d="M154.9 523.1H362.2" fill="none" stroke="#9fa1a4" stroke-width="0.67"/><path d="M362.2 523.1H469.1" fill="none" stroke="#9fa1a4" stroke-width="0.67"/><path d="M469.1 523.1H561.2" fill="none" stroke="#9fa1a4" stroke-width="0.67"/><path d="M561.2 523.1H653.3" fill="none" stroke="#9fa1a4" stroke-width="0.67"/><path d="M653.3 523.1H745.3" fill="none" stroke="#9fa1a4" stroke-width="0.67"/><path d="M48 551.6H89.6" fill="none" stroke="#9fa1a4" stroke-width="0.67"/><path d="M89.6 551.6H154.9" fill="none" stroke="#9fa1a4" stroke-width="0.67"/><path d="M154.9 551.6H362.2" fill="none" stroke="#9fa1a4" stroke-width="0.67"/><path d="M362.2 551.6H469.1" fill="none" stroke="#9fa1a4" stroke-width="0.67"/><path d="M469.1 551.6H561.2" fill="none" stroke="#9fa1a4" stroke-width="0.67"/><path d="M561.2 551.6H653.3" fill="none" stroke="#9fa1a4" stroke-width="0.67"/><path d="M653.3 551.6H745.3" fill="none" stroke="#9fa1a4" stroke-width="0.67"/><path d="M48 590.3H89.6" fill="none" stroke="#9fa1a4" stroke-width="0.67"/><path d="M89.6 590.3H154.9" fill="none" stroke="#9fa1a4" stroke-width="0.67"/><path d="M154.9 590.3H362.2" fill="none" stroke="#9fa1a4" stroke-width="0.67"/><path d="M362.2 590.3H469.1" fill="none" stroke="#9fa1a4" stroke-width="0.67"/><path d="M469.1 590.3H561.2" fill="none" stroke="#9fa1a4" stroke-width="0.67"/><path d="M561.2 590.3H653.3" fill="none" stroke="#9fa1a4" stroke-width="0.67"/><path d="M653.3 590.3H745.3" fill="none" stroke="#9fa1a4" stroke-width="0.67"/><path d="M48 618.8H89.6" fill="none" stroke="#9fa1a4" stroke-width="0.67"/><path d="M89.6 618.8H154.9" fill="none" stroke="#9fa1a4" stroke-width="0.67"/><path d="M154.9 618.8H362.2" fill="none" stroke="#9fa1a4" stroke-width="0.67"/><path d="M362.2 618.8H469.1" fill="none" stroke="#9fa1a4" stroke-width="0.67"/><path d="M469.1 618.8H561.2" fill="none" stroke="#9fa1a4" stroke-width="0.67"/><path d="M561.2 618.8H653.3" fill="none" stroke="#9fa1a4" stroke-width="0.67"/><path d="M653.3 618.8H745.3" fill="none" stroke="#9fa1a4" stroke-width="0.67"/><path d="M48 647.3H89.6" fill="none" stroke="#9fa1a4" stroke-width="0.67"/><path d="M89.6 647.3H154.9" fill="none" stroke="#9fa1a4" stroke-width="0.67"/><path d="M154.9 647.3H362.2" fill="none" stroke="#9fa1a4" stroke-width="0.67"/><path d="M362.2 647.3H469.1" fill="none" stroke="#9fa1a4" stroke-width="0.67"/><path d="M469.1 647.3H561.2" fill="none" stroke="#9fa1a4" stroke-width="0.67"/><path d="M561.2 647.3H653.3" fill="none" stroke="#9fa1a4" stroke-width="0.67"/><path d="M653.3 647.3H745.3" fill="none" stroke="#9fa1a4" stroke-width="0.67"/><path d="M48 675.7H89.6" fill="none" stroke="#9fa1a4" stroke-width="0.67"/><path d="M89.6 675.7H154.9" fill="none" stroke="#9fa1a4" stroke-width="0.67"/><path d="M154.9 675.7H362.2" fill="none" stroke="#9fa1a4" stroke-width="0.67"/><path d="M362.2 675.7H469.1" fill="none" stroke="#9fa1a4" stroke-width="0.67"/><path d="M469.1 675.7H561.2" fill="none" stroke="#9fa1a4" stroke-width="0.67"/><path d="M561.2 675.7H653.3" fill="none" stroke="#9fa1a4" stroke-width="0.67"/><path d="M653.3 675.7H745.3" fill="none" stroke="#9fa1a4" stroke-width="0.67"/><path d="M48 704.2H89.6" fill="none" stroke="#9fa1a4" stroke-width="0.67"/><path d="M89.6 704.2H154.9" fill="none" stroke="#9fa1a4" stroke-width="0.67"/><path d="M154.9 704.2H362.2" fill="none" stroke="#9fa1a4" stroke-width="0.67"/><path d="M362.2 704.2H469.1" fill="none" stroke="#9fa1a4" stroke-width="0.67"/><path d="M469.1 704.2H561.2" fill="none" stroke="#9fa1a4" stroke-width="0.67"/><path d="M561.2 704.2H653.3" fill="none" stroke="#9fa1a4" stroke-width="0.67"/><path d="M653.3 704.2H745.3" fill="none" stroke="#9fa1a4" stroke-width="0.67"/><path d="M48 732.7H89.6" fill="none" stroke="#9fa1a4" stroke-width="0.67"/><path d="M89.6 732.7H154.9" fill="none" stroke="#9fa1a4" stroke-width="0.67"/><path d="M154.9 732.7H362.2" fill="none" stroke="#9fa1a4" stroke-width="0.67"/><path d="M362.2 732.7H469.1" fill="none" stroke="#9fa1a4" stroke-width="0.67"/><path d="M469.1 732.7H561.2" fill="none" stroke="#9fa1a4" stroke-width="0.67"/><path d="M561.2 732.7H653.3" fill="none" stroke="#9fa1a4" stroke-width="0.67"/><path d="M653.3 732.7H745.3" fill="none" stroke="#9fa1a4" stroke-width="0.67"/><path d="M48 761.2H89.6" fill="none" stroke="#9fa1a4" stroke-width="0.67"/><path d="M89.6 761.2H154.9" fill="none" stroke="#9fa1a4" stroke-width="0.67"/><path d="M154.9 761.2H362.2" fill="none" stroke="#9fa1a4" stroke-width="0.67"/><path d="M362.2 761.2H469.1" fill="none" stroke="#9fa1a4" stroke-width="0.67"/><path d="M469.1 761.2H561.2" fill="none" stroke="#9fa1a4" stroke-width="0.67"/><path d="M561.2 761.2H653.3" fill="none" stroke="#9fa1a4" stroke-width="0.67"/><path d="M653.3 761.2H745.3" fill="none" stroke="#9fa1a4" stroke-width="0.67"/><path d="M48 789.7H89.6" fill="none" stroke="#9fa1a4" stroke-width="0.67"/><path d="M89.6 789.7H154.9" fill="none" stroke="#9fa1a4" stroke-width="0.67"/><path d="M154.9 789.7H362.2" fill="none" stroke="#9fa1a4" stroke-width="0.67"/><path d="M362.2 789.7H469.1" fill="none" stroke="#9fa1a4" stroke-width="0.67"/><path d="M469.1 789.7H561.2" fill="none" stroke="#9fa1a4" stroke-width="0.67"/><path d="M561.2 789.7H653.3" fill="none" stroke="#9fa1a4" stroke-width="0.67"/><path d="M653.3 789.7H745.3" fill="none" stroke="#9fa1a4" stroke-width="0.67"/><path d="M48 818.1H89.6" fill="none" stroke="#9fa1a4" stroke-width="0.67"/><path d="M89.6 818.1H154.9" fill="none" stroke="#9fa1a4" stroke-width="0.67"/><path d="M154.9 818.1H362.2" fill="none" stroke="#9fa1a4" stroke-width="0.67"/><path d="M362.2 818.1H469.1" fill="none" stroke="#9fa1a4" stroke-width="0.67"/><path d="M469.1 818.1H561.2" fill="none" stroke="#9fa1a4" stroke-width="0.67"/><path d="M561.2 818.1H653.3" fill="none" stroke="#9fa1a4" stroke-width="0.67"/><path d="M653.3 818.1H745.3" fill="none" stroke="#9fa1a4" stroke-width="0.67"/></svg><svg x="46.67" y="858.61" width="700" height="202.03" viewBox="46.67 858.61 700 202.03"><path d="M48 859.9H89.6" fill="none" stroke="#9fa1a4" stroke-width="0.67"/><path d="M89.6 859.9H154.9" fill="none" stroke="#9fa1a4" stroke-width="0.67"/><path d="M154.9 859.9H362.2" fill="none" stroke="#9fa1a4" stroke-width="0.67"/><path d="M362.2 859.9H469.1" fill="none" stroke="#9fa1a4" stroke-width="0.67"/><path d="M469.1 859.9H561.2" fill="none" stroke="#9fa1a4" stroke-width="0.67"/><path d="M561.2 859.9H653.3" fill="none" stroke="#9fa1a4" stroke-width="0.67"/><path d="M653.3 859.9H745.3" fill="none" stroke="#9fa1a4" stroke-width="0.67"/><path d="M48 888.4H89.6" fill="none" stroke="#9fa1a4" stroke-width="0.67"/><path d="M89.6 888.4H154.9" fill="none" stroke="#9fa1a4" stroke-width="0.67"/><path d="M154.9 888.4H362.2" fill="none" stroke="#9fa1a4" stroke-width="0.67"/><path d="M362.2 888.4H469.1" fill="none" stroke="#9fa1a4" stroke-width="0.67"/><path d="M469.1 888.4H561.2" fill="none" stroke="#9fa1a4" stroke-width="0.67"/><path d="M561.2 888.4H653.3" fill="none" stroke="#9fa1a4" stroke-width="0.67"/><path d="M653.3 888.4H745.3" fill="none" stroke="#9fa1a4" stroke-width="0.67"/><path d="M48 916.9H89.6" fill="none" stroke="#9fa1a4" stroke-width="0.67"/><path d="M89.6 916.9H154.9" fill="none" stroke="#9fa1a4" stroke-width="0.67"/><path d="M154.9 916.9H362.2" fill="none" stroke="#9fa1a4" stroke-width="0.67"/><path d="M362.2 916.9H469.1" fill="none" stroke="#9fa1a4" stroke-width="0.67"/><path d="M469.1 916.9H561.2" fill="none" stroke="#9fa1a4" stroke-width="0.67"/><path d="M561.2 916.9H653.3" fill="none" stroke="#9fa1a4" stroke-width="0.67"/><path d="M653.3 916.9H745.3" fill="none" stroke="#9fa1a4" stroke-width="0.67"/><path d="M48 945.4H89.6" fill="none" stroke="#9fa1a4" stroke-width="0.67"/><path d="M89.6 945.4H154.9" fill="none" stroke="#9fa1a4" stroke-width="0.67"/><path d="M154.9 945.4H362.2" fill="none" stroke="#9fa1a4" stroke-width="0.67"/><path d="M362.2 945.4H469.1" fill="none" stroke="#9fa1a4" stroke-width="0.67"/><path d="M469.1 945.4H561.2" fill="none" stroke="#9fa1a4" stroke-width="0.67"/><path d="M561.2 945.4H653.3" fill="none" stroke="#9fa1a4" stroke-width="0.67"/><path d="M653.3 945.4H745.3" fill="none" stroke="#9fa1a4" stroke-width="0.67"/><path d="M48 973.9H89.6" fill="none" stroke="#9fa1a4" stroke-width="0.67"/><path d="M89.6 973.9H154.9" fill="none" stroke="#9fa1a4" stroke-width="0.67"/><path d="M154.9 973.9H362.2" fill="none" stroke="#9fa1a4" stroke-width="0.67"/><path d="M362.2 973.9H469.1" fill="none" stroke="#9fa1a4" stroke-width="0.67"/><path d="M469.1 973.9H561.2" fill="none" stroke="#9fa1a4" stroke-width="0.67"/><path d="M561.2 973.9H653.3" fill="none" stroke="#9fa1a4" stroke-width="0.67"/><path d="M653.3 973.9H745.3" fill="none" stroke="#9fa1a4" stroke-width="0.67"/><path d="M48 1002.3H89.6" fill="none" stroke="#9fa1a4" stroke-width="0.67"/><path d="M89.6 1002.3H154.9" fill="none" stroke="#9fa1a4" stroke-width="0.67"/><path d="M154.9 1002.3H362.2" fill="none" stroke="#9fa1a4" stroke-width="0.67"/><path d="M362.2 1002.3H469.1" fill="none" stroke="#9fa1a4" stroke-width="0.67"/><path d="M469.1 1002.3H561.2" fill="none" stroke="#9fa1a4" stroke-width="0.67"/><path d="M561.2 1002.3H653.3" fill="none" stroke="#9fa1a4" stroke-width="0.67"/><path d="M653.3 1002.3H745.3" fill="none" stroke="#9fa1a4" stroke-width="0.67"/><path d="M48 1030.8H89.6" fill="none" stroke="#9fa1a4" stroke-width="0.67"/><path d="M89.6 1030.8H154.9" fill="none" stroke="#9fa1a4" stroke-width="0.67"/><path d="M154.9 1030.8H362.2" fill="none" stroke="#9fa1a4" stroke-width="0.67"/><path d="M362.2 1030.8H469.1" fill="none" stroke="#9fa1a4" stroke-width="0.67"/><path d="M469.1 1030.8H561.2" fill="none" stroke="#9fa1a4" stroke-width="0.67"/><path d="M561.2 1030.8H653.3" fill="none" stroke="#9fa1a4" stroke-width="0.67"/><path d="M653.3 1030.8H745.3" fill="none" stroke="#9fa1a4" stroke-width="0.67"/><path d="M48 1059.3H89.6" fill="none" stroke="#9fa1a4" stroke-width="0.67"/><path d="M89.6 1059.3H154.9" fill="none" stroke="#9fa1a4" stroke-width="0.67"/><path d="M154.9 1059.3H362.2" fill="none" stroke="#9fa1a4" stroke-width="0.67"/><path d="M362.2 1059.3H469.1" fill="none" stroke="#9fa1a4" stroke-width="0.67"/><path d="M469.1 1059.3H561.2" fill="none" stroke="#9fa1a4" stroke-width="0.67"/><path d="M561.2 1059.3H653.3" fill="none" stroke="#9fa1a4" stroke-width="0.67"/><path d="M653.3 1059.3H745.3" fill="none" stroke="#9fa1a4" stroke-width="0.67"/></svg></svg>